<?xml version="1.0" standalone="no"?>
<!DOCTYPE svg PUBLIC "-//W3C//DTD SVG 20010904//EN"
 "http://www.w3.org/TR/2001/REC-SVG-20010904/DTD/svg10.dtd">
<svg version="1.0" xmlns="http://www.w3.org/2000/svg"
 width="1155.000000pt" height="1155.000000pt" viewBox="0 0 1155.000000 1155.000000"
 preserveAspectRatio="xMidYMid meet">

<g transform="translate(0.000000,1155.000000) scale(0.100000,-0.100000)"
fill="#000000" stroke="none">
<path d="M700 9625 l0 -1225 1225 0 1225 0 0 1225 0 1225 -1225 0 -1225 0 0
-1225z m2080 0 l0 -855 -855 0 -855 0 0 855 0 855 855 0 855 0 0 -855z"/>
<path d="M1400 9625 l0 -525 525 0 525 0 0 525 0 525 -525 0 -525 0 0 -525z"/>
<path d="M3850 10675 l0 -175 525 0 525 0 0 -175 0 -175 175 0 175 0 0 -525 0
-525 -175 0 -175 0 0 -350 0 -350 175 0 175 0 0 -175 0 -175 350 0 350 0 0
-175 0 -175 -175 0 -175 0 0 -175 0 -175 -175 0 -175 0 0 175 0 175 -175 0
-175 0 0 -175 0 -175 175 0 175 0 0 -350 0 -350 -350 0 -350 0 0 175 0 175
-175 0 -175 0 0 -350 0 -350 875 0 875 0 0 350 0 350 -175 0 -175 0 0 175 0
175 175 0 175 0 0 175 0 175 175 0 175 0 0 -175 0 -175 350 0 350 0 0 -175 0
-175 -350 0 -350 0 0 -350 0 -350 175 0 175 0 0 175 0 175 175 0 175 0 0 175
0 175 175 0 175 0 0 175 0 175 175 0 175 0 0 -175 0 -175 175 0 175 0 0 175 0
175 175 0 175 0 0 -175 0 -175 175 0 175 0 0 -700 0 -700 175 0 175 0 0 -175
0 -175 -175 0 -175 0 0 -175 0 -175 525 0 525 0 0 -350 0 -350 -175 0 -175 0
0 175 0 175 -525 0 -525 0 0 -175 0 -175 -350 0 -350 0 0 -175 0 -175 -175 0
-175 0 0 175 0 175 -175 0 -175 0 0 -175 0 -175 -175 0 -175 0 0 350 0 350
-175 0 -175 0 0 350 0 350 -175 0 -175 0 0 -350 0 -350 -175 0 -175 0 0 350 0
350 -350 0 -350 0 0 -350 0 -350 175 0 175 0 0 -175 0 -175 -350 0 -350 0 0
175 0 175 -175 0 -175 0 0 -175 0 -175 -350 0 -350 0 0 -175 0 -175 -350 0
-350 0 0 175 0 175 175 0 175 0 0 175 0 175 175 0 175 0 0 175 0 175 -175 0
-175 0 0 175 0 175 -175 0 -175 0 0 -175 0 -175 -525 0 -525 0 0 -175 0 -175
175 0 175 0 0 -175 0 -175 175 0 175 0 0 -175 0 -175 -175 0 -175 0 0 -175 0
-175 175 0 175 0 0 175 0 175 175 0 175 0 0 -175 0 -175 350 0 350 0 0 -350 0
-350 350 0 350 0 0 -175 0 -175 -175 0 -175 0 0 -175 0 -175 -175 0 -175 0 0
-350 0 -350 175 0 175 0 0 -350 0 -350 350 0 350 0 0 175 0 175 -175 0 -175 0
0 175 0 175 -175 0 -175 0 0 175 0 175 175 0 175 0 0 175 0 175 175 0 175 0 0
-175 0 -175 175 0 175 0 0 -175 0 -175 175 0 175 0 0 -175 0 -175 -175 0 -175
0 0 -175 0 -175 1050 0 1050 0 0 175 0 175 -175 0 -175 0 0 350 0 350 175 0
175 0 0 -175 0 -175 175 0 175 0 0 -175 0 -175 175 0 175 0 0 -175 0 -175 175
0 175 0 0 175 0 175 175 0 175 0 0 -175 0 -175 350 0 350 0 0 175 0 175 350 0
350 0 0 175 0 175 -350 0 -350 0 0 175 0 175 700 0 700 0 0 -175 0 -175 -175
0 -175 0 0 -350 0 -350 175 0 175 0 0 350 0 350 175 0 175 0 0 175 0 175 -175
0 -175 0 0 175 0 175 175 0 175 0 0 175 0 175 -175 0 -175 0 0 350 0 350 175
0 175 0 0 525 0 525 -350 0 -350 0 0 350 0 350 175 0 175 0 0 350 0 350 175 0
175 0 0 700 0 700 -175 0 -175 0 0 175 0 175 175 0 175 0 0 175 0 175 -175 0
-175 0 0 -175 0 -175 -175 0 -175 0 0 -175 0 -175 175 0 175 0 0 -175 0 -175
-350 0 -350 0 0 175 0 175 -175 0 -175 0 0 525 0 525 -175 0 -175 0 0 -175 0
-175 -175 0 -175 0 0 175 0 175 -350 0 -350 0 0 525 0 525 -175 0 -175 0 0
350 0 350 -175 0 -175 0 0 -350 0 -350 -350 0 -350 0 0 175 0 175 175 0 175 0
0 175 0 175 -175 0 -175 0 0 350 0 350 175 0 175 0 0 -175 0 -175 175 0 175 0
0 350 0 350 -525 0 -525 0 0 -175 0 -175 -175 0 -175 0 0 175 0 175 -175 0
-175 0 0 -175 0 -175 -175 0 -175 0 0 175 0 175 -700 0 -700 0 0 -175z m2450
-875 l0 -350 -175 0 -175 0 0 -175 0 -175 -175 0 -175 0 0 525 0 525 350 0
350 0 0 -350z m350 -875 l0 -175 175 0 175 0 0 -175 0 -175 175 0 175 0 0 175
0 175 175 0 175 0 0 -350 0 -350 175 0 175 0 0 -175 0 -175 -350 0 -350 0 0
175 0 175 -175 0 -175 0 0 -175 0 -175 -175 0 -175 0 0 175 0 175 -350 0 -350
0 0 350 0 350 175 0 175 0 0 175 0 175 175 0 175 0 0 -175z m-1050 -350 l0
-175 -175 0 -175 0 0 175 0 175 175 0 175 0 0 -175z m3500 -1400 l0 -175 -175
0 -175 0 0 175 0 175 175 0 175 0 0 -175z m700 -700 l0 -175 -175 0 -175 0 0
-175 0 -175 -175 0 -175 0 0 350 0 350 350 0 350 0 0 -175z m350 -1050 l0
-525 -175 0 -175 0 0 525 0 525 175 0 175 0 0 -525z m-7000 -700 l0 -175 -175
0 -175 0 0 -175 0 -175 -175 0 -175 0 0 175 0 175 175 0 175 0 0 175 0 175
175 0 175 0 0 -175z m3150 -700 l0 -525 175 0 175 0 0 -175 0 -175 -175 0
-175 0 0 175 0 175 -175 0 -175 0 0 525 0 525 175 0 175 0 0 -525z m3150 0 l0
-175 -350 0 -350 0 0 175 0 175 350 0 350 0 0 -175z m-5250 -350 l0 -175 175
0 175 0 0 175 0 175 350 0 350 0 0 -350 0 -350 350 0 350 0 0 -350 0 -350
-350 0 -350 0 0 -175 0 -175 350 0 350 0 0 -350 0 -350 175 0 175 0 0 -175 0
-175 -175 0 -175 0 0 175 0 175 -350 0 -350 0 0 350 0 350 -175 0 -175 0 0
175 0 175 -175 0 -175 0 0 175 0 175 -175 0 -175 0 0 350 0 350 -350 0 -350 0
0 175 0 175 350 0 350 0 0 -175z m3150 0 l0 -175 175 0 175 0 0 -175 0 -175
-175 0 -175 0 0 -175 0 -175 175 0 175 0 0 -350 0 -350 700 0 700 0 0 -175 0
-175 -175 0 -175 0 0 -175 0 -175 175 0 175 0 0 -175 0 -175 -350 0 -350 0 0
175 0 175 -175 0 -175 0 0 175 0 175 -175 0 -175 0 0 -175 0 -175 -175 0 -175
0 0 175 0 175 -175 0 -175 0 0 350 0 350 -175 0 -175 0 0 -175 0 -175 -175 0
-175 0 0 175 0 175 175 0 175 0 0 175 0 175 175 0 175 0 0 525 0 525 175 0
175 0 0 -175z m1750 -700 l0 -525 -525 0 -525 0 0 525 0 525 525 0 525 0 0
-525z m1400 350 l0 -175 -350 0 -350 0 0 -175 0 -175 175 0 175 0 0 -175 0
-175 -350 0 -350 0 0 350 0 350 175 0 175 0 0 175 0 175 350 0 350 0 0 -175z"/>
<path d="M6300 8575 l0 -175 175 0 175 0 0 175 0 175 -175 0 -175 0 0 -175z"/>
<path d="M4550 3150 l0 -350 350 0 350 0 0 175 0 175 -175 0 -175 0 0 175 0
175 -175 0 -175 0 0 -350z"/>
<path d="M7350 1925 l0 -175 175 0 175 0 0 175 0 175 -175 0 -175 0 0 -175z"/>
<path d="M8400 2975 l0 -175 175 0 175 0 0 175 0 175 -175 0 -175 0 0 -175z"/>
<path d="M8400 9625 l0 -1225 1225 0 1225 0 0 1225 0 1225 -1225 0 -1225 0 0
-1225z m2080 0 l0 -855 -855 0 -855 0 0 855 0 855 855 0 855 0 0 -855z"/>
<path d="M9100 9625 l0 -525 525 0 525 0 0 525 0 525 -525 0 -525 0 0 -525z"/>
<path d="M4200 9975 l0 -175 175 0 175 0 0 -175 0 -175 -525 0 -525 0 0 -175
0 -175 175 0 175 0 0 -175 0 -175 -175 0 -175 0 0 -350 0 -350 -350 0 -350 0
0 -175 0 -175 -350 0 -350 0 0 175 0 175 -350 0 -350 0 0 -350 0 -350 -175 0
-175 0 0 -525 0 -525 -175 0 -175 0 0 -175 0 -175 350 0 350 0 0 175 0 175
175 0 175 0 0 -175 0 -175 350 0 350 0 0 175 0 175 700 0 700 0 0 175 0 175
-175 0 -175 0 0 350 0 350 525 0 525 0 0 175 0 175 -350 0 -350 0 0 525 0 525
175 0 175 0 0 -350 0 -350 175 0 175 0 0 700 0 700 175 0 175 0 0 175 0 175
-175 0 -175 0 0 175 0 175 -175 0 -175 0 0 -175z m-2100 -2450 l0 -175 175 0
175 0 0 -175 0 -175 350 0 350 0 0 -175 0 -175 -350 0 -350 0 0 -175 0 -175
-350 0 -350 0 0 175 0 175 -175 0 -175 0 0 350 0 350 175 0 175 0 0 175 0 175
175 0 175 0 0 -175z m1050 0 l0 -175 -175 0 -175 0 0 175 0 175 175 0 175 0 0
-175z"/>
<path d="M1750 6825 l0 -175 350 0 350 0 0 175 0 175 -350 0 -350 0 0 -175z"/>
<path d="M8050 6475 l0 -175 175 0 175 0 0 175 0 175 -175 0 -175 0 0 -175z"/>
<path d="M3007 6063 c-4 -3 -7 -33 -7 -65 l0 -58 83 0 c45 0 88 -4 94 -8 9 -6
13 -73 15 -257 l3 -250 58 -3 c31 -2 58 -2 59 0 1 2 5 118 8 258 l5 255 85 3
c52 2 87 8 92 15 11 17 10 75 -2 98 -10 18 -24 19 -249 19 -131 0 -241 -3
-244 -7z"/>
<path d="M3664 6056 c-3 -7 -4 -128 -2 -267 l3 -254 30 -42 c55 -78 155 -104
236 -62 l41 20 44 -20 c96 -45 199 -13 246 78 l28 53 0 238 c0 131 -3 245 -6
254 -5 12 -20 16 -59 16 -39 0 -54 -4 -59 -16 -3 -9 -6 -120 -6 -248 0 -213
-2 -234 -18 -249 -24 -22 -54 -21 -81 1 -20 16 -21 26 -24 262 l-2 245 -54 3
c-37 2 -57 -1 -62 -10 -5 -7 -9 -118 -9 -245 0 -220 -1 -234 -20 -253 -22 -22
-51 -26 -81 -10 -18 10 -19 24 -19 253 0 176 -3 246 -12 255 -17 17 -107 16
-114 -2z"/>
<path d="M4685 6056 c-52 -20 -79 -37 -123 -80 -73 -69 -106 -154 -100 -255
14 -236 251 -382 458 -284 76 35 118 76 157 153 25 49 28 65 28 150 0 78 -4
103 -23 142 -39 78 -114 143 -202 175 -42 15 -154 15 -195 -1z m177 -130 c75
-32 121 -103 121 -187 -1 -100 -58 -174 -154 -200 -107 -29 -221 52 -244 172
-14 73 47 182 120 214 40 18 115 18 157 1z"/>
<path d="M5395 6056 c-63 -20 -92 -44 -120 -99 -32 -65 -32 -110 1 -175 40
-80 84 -102 208 -102 90 0 99 -2 121 -25 29 -28 31 -51 9 -83 -14 -21 -21 -22
-164 -22 -166 0 -170 -2 -170 -72 0 -60 1 -60 186 -57 159 4 171 5 202 28 55
39 82 91 82 161 0 67 -14 102 -57 141 -45 43 -67 49 -163 49 -113 0 -150 16
-150 66 0 27 9 44 33 66 1 0 72 4 157 7 l155 6 0 60 0 60 -145 2 c-95 1 -159
-2 -185 -11z"/>
<path d="M5935 6058 c-3 -7 -4 -153 -3 -323 l3 -310 55 0 55 0 3 121 c2 116 4
122 25 128 32 8 210 7 224 -2 8 -5 13 -47 15 -127 l3 -120 60 0 60 0 3 317 2
318 -23 5 c-13 4 -41 5 -63 3 l-39 -3 -3 -119 c-1 -67 -7 -126 -14 -133 -14
-18 -207 -18 -231 0 -14 10 -17 34 -19 132 l-3 120 -53 3 c-36 2 -54 -1 -57
-10z"/>
<path d="M6835 6056 c-58 -22 -91 -45 -132 -89 -70 -75 -86 -118 -87 -222 -1
-99 9 -134 58 -203 55 -78 172 -142 260 -142 92 0 203 59 261 138 163 224 7
535 -265 531 -36 -1 -78 -7 -95 -13z m178 -129 c67 -29 127 -121 127 -198 0
-38 -48 -126 -84 -154 -50 -38 -115 -52 -168 -35 -98 32 -148 98 -148 197 0
79 41 151 102 182 50 24 123 28 171 8z"/>
<path d="M7447 6063 c-4 -3 -7 -150 -7 -325 l0 -318 60 0 60 0 0 46 c0 78 8
84 106 84 64 0 94 5 123 20 104 52 146 122 146 241 0 67 -4 81 -30 124 -65
104 -141 135 -334 135 -65 0 -121 -3 -124 -7z m275 -135 c57 -17 88 -61 88
-126 0 -46 -4 -55 -36 -87 l-35 -36 -87 3 -87 3 -3 111 c-2 92 0 115 13 128
20 19 90 21 147 4z"/>
<path d="M8210 6054 c-53 -17 -66 -27 -105 -78 -26 -34 -29 -47 -29 -107 0
-61 3 -72 30 -106 58 -71 85 -83 194 -83 83 0 101 -3 124 -21 30 -24 34 -58 9
-88 -17 -19 -29 -21 -168 -23 l-150 -3 -3 -63 -3 -64 174 4 c171 3 174 3 209
30 37 28 88 117 88 152 0 68 -51 151 -111 182 -18 9 -59 14 -118 14 -50 0
-102 5 -116 12 -50 23 -46 99 6 117 18 6 95 11 171 11 l139 0 -3 63 -3 62
-145 2 c-104 1 -158 -2 -190 -13z"/>
<path d="M700 5425 l0 -175 175 0 175 0 0 -175 0 -175 175 0 175 0 0 175 0
175 -175 0 -175 0 0 175 0 175 -175 0 -175 0 0 -175z"/>
<path d="M1750 5425 l0 -175 350 0 350 0 0 175 0 175 -350 0 -350 0 0 -175z"/>
<path d="M6650 5075 l0 -175 525 0 525 0 0 -175 0 -175 175 0 175 0 0 175 0
175 175 0 175 0 0 175 0 175 -175 0 -175 0 0 -175 0 -175 -175 0 -175 0 0 175
0 175 -525 0 -525 0 0 -175z"/>
<path d="M700 4375 l0 -175 175 0 175 0 0 175 0 175 -175 0 -175 0 0 -175z"/>
<path d="M1050 3675 l0 -175 175 0 175 0 0 175 0 175 -175 0 -175 0 0 -175z"/>
<path d="M700 1925 l0 -1225 1225 0 1225 0 0 1225 0 1225 -1225 0 -1225 0 0
-1225z m2080 0 l0 -855 -855 0 -855 0 0 855 0 855 855 0 855 0 0 -855z"/>
<path d="M1400 1925 l0 -525 525 0 525 0 0 525 0 525 -525 0 -525 0 0 -525z"/>
</g>
</svg>
